{
    "asset": {
        "version": "2.0",
        "generator": "Open Asset Import Library (assimp v5.2.cf7d3637)"
    },
    "extensionsUsed": [
        "KHR_materials_volume",
        "FB_ngon_encoding"
    ],
    "accessors": [
        {
            "bufferView": 0,
            "byteOffset": 0,
            "componentType": 5126,
            "count": 24,
            "type": "VEC3",
            "max": [
                1.4529926776885987,
                -0.18060854077339173,
                4.669844627380371
            ],
            "min": [
                -0.886062502861023,
                -3.786433696746826,
                4.113938331604004
            ]
        },
        {
            "bufferView": 1,
            "byteOffset": 0,
            "componentType": 5126,
            "count": 24,
            "type": "VEC3",
            "max": [
                0.0,
                0.3109382092952728,
                0.9600256085395813
            ],
            "min": [
                0.0,
                -0.3109382092952728,
                -0.9600256085395813
            ]
        },
        {
            "bufferView": 2,
            "byteOffset": 0,
            "componentType": 5126,
            "count": 24,
            "type": "VEC2",
            "max": [
                1.169527530670166,
                3.18215012550354
            ],
            "min": [
                -1.169527530670166,
                -1.9997825622558594
            ]
        },
        {
            "bufferView": 3,
            "byteOffset": 0,
            "componentType": 5125,
            "count": 24,
            "type": "SCALAR",
            "max": [
                23
            ],
            "min": [
                0
            ]
        },
        {
            "bufferView": 4,
            "byteOffset": 0,
            "componentType": 5126,
            "count": 24,
            "type": "VEC3",
            "max": [
                0.3283844292163849,
                0.6529744863510132,
                0.9545286893844605
            ],
            "min": [
                -2.4232659339904787,
                -1.1319823265075684,
                0.3985840082168579
            ]
        },
        {
            "bufferView": 5,
            "byteOffset": 0,
            "componentType": 5126,
            "count": 24,
            "type": "VEC3",
            "max": [
                0.3940403163433075,
                1.5218880378142786e-7,
                0.9341263771057129
            ],
            "min": [
                -0.3940403163433075,
                -1.5218880378142786e-7,
                -0.9341263771057129
            ]
        },
        {
            "bufferView": 6,
            "byteOffset": 0,
            "componentType": 5126,
            "count": 24,
            "type": "VEC2",
            "max": [
                0.892478346824646,
                3.4450149536132814
            ],
            "min": [
                -0.8924793601036072,
                -0.554259181022644
            ]
        },
        {
            "bufferView": 7,
            "byteOffset": 0,
            "componentType": 5125,
            "count": 24,
            "type": "SCALAR",
            "max": [
                23
            ],
            "min": [
                0
            ]
        },
        {
            "bufferView": 8,
            "byteOffset": 0,
            "componentType": 5126,
            "count": 24,
            "type": "VEC3",
            "max": [
                0.3423610031604767,
                0.9300225377082825,
                8.130948066711426
            ],
            "min": [
                -3.2634639739990236,
                -1.4090327024459839,
                7.575041770935059
            ]
        },
        {
            "bufferView": 9,
            "byteOffset": 0,
            "componentType": 5126,
            "count": 24,
            "type": "VEC3",
            "max": [
                0.31093767285346987,
                1.5640833339602978e-7,
                0.9600256681442261
            ],
            "min": [
                -0.31093767285346987,
                -1.5640833339602978e-7,
                -0.9600256681442261
            ]
        },
        {
            "bufferView": 10,
            "byteOffset": 0,
            "componentType": 5126,
            "count": 24,
            "type": "VEC2",
            "max": [
                1.1695278882980347,
                2.1059653759002687
            ],
            "min": [
                -1.169529914855957,
                -2.968585968017578
            ]
        },
        {
            "bufferView": 11,
            "byteOffset": 0,
            "componentType": 5125,
            "count": 24,
            "type": "SCALAR",
            "max": [
                23
            ],
            "min": [
                0
            ]
        },
        {
            "bufferView": 12,
            "byteOffset": 0,
            "componentType": 5126,
            "count": 24,
            "type": "VEC3",
            "max": [
                2.89988112449646,
                0.4419495761394501,
                8.74976634979248
            ],
            "min": [
                -0.3979896605014801,
                -2.8559212684631349,
                8.193860054016114
            ]
        },
        {
            "bufferView": 13,
            "byteOffset": 0,
            "componentType": 5126,
            "count": 24,
            "type": "VEC3",
            "max": [
                0.2721521258354187,
                0.27215227484703066,
                0.9373577833175659
            ],
            "min": [
                -0.2721521258354187,
                -0.27215227484703066,
                -0.9373577833175659
            ]
        },
        {
            "bufferView": 14,
            "byteOffset": 0,
            "componentType": 5126,
            "count": 24,
            "type": "VEC2",
            "max": [
                0.9175132513046265,
                1.196234941482544
            ],
            "min": [
                -0.9175124168395996,
                -3.3058228492736818
            ]
        },
        {
            "bufferView": 15,
            "byteOffset": 0,
            "componentType": 5125,
            "count": 24,
            "type": "SCALAR",
            "max": [
                23
            ],
            "min": [
                0
            ]
        },
        {
            "bufferView": 16,
            "byteOffset": 0,
            "componentType": 5126,
            "count": 24,
            "type": "VEC3",
            "max": [
                2.89988112449646,
                2.376911163330078,
                8.130948066711426
            ],
            "min": [
                -0.3979896605014801,
                -0.9209597706794739,
                7.575041770935059
            ]
        },
        {
            "bufferView": 17,
            "byteOffset": 0,
            "componentType": 5126,
            "count": 24,
            "type": "VEC3",
            "max": [
                0.2721521258354187,
                0.27215197682380679,
                0.9373576641082764
            ],
            "min": [
                -0.2721521258354187,
                -0.27215197682380679,
                -0.9373576641082764
            ]
        },
        {
            "bufferView": 18,
            "byteOffset": 0,
            "componentType": 5126,
            "count": 24,
            "type": "VEC2",
            "max": [
                0.9175131916999817,
                1.196234941482544
            ],
            "min": [
                -0.9175123572349548,
                -3.0902457237243654
            ]
        },
        {
            "bufferView": 19,
            "byteOffset": 0,
            "componentType": 5125,
            "count": 24,
            "type": "SCALAR",
            "max": [
                23
            ],
            "min": [
                0
            ]
        },
        {
            "bufferView": 20,
            "byteOffset": 0,
            "componentType": 5126,
            "count": 48,
            "type": "VEC3",
            "max": [
                3.1878726482391359,
                2.6649022102355959,
                9.570239067077637
            ],
            "min": [
                -2.6209423542022707,
                -3.1439127922058107,
                7.374057292938232
            ]
        },
        {
            "bufferView": 21,
            "byteOffset": 0,
            "componentType": 5126,
            "count": 48,
            "type": "VEC3",
            "max": [
                0.4061456322669983,
                0.40614575147628786,
                1.0
            ],
            "min": [
                -0.4061456322669983,
                -0.40614575147628786,
                -1.0
            ]
        },
        {
            "bufferView": 22,
            "byteOffset": 0,
            "componentType": 5126,
            "count": 48,
            "type": "VEC2",
            "max": [
                2.9044086933135988,
                3.904407501220703
            ],
            "min": [
                -2.904407501220703,
                -7.692584991455078
            ]
        },
        {
            "bufferView": 23,
            "byteOffset": 0,
            "componentType": 5125,
            "count": 48,
            "type": "SCALAR",
            "max": [
                47
            ],
            "min": [
                0
            ]
        },
        {
            "bufferView": 24,
            "byteOffset": 0,
            "componentType": 5126,
            "count": 720,
            "type": "VEC3",
            "max": [
                1.7424410581588746,
                1.219470500946045,
                11.414412498474121
            ],
            "min": [
                -1.1755108833312989,
                -1.698481559753418,
                7.777246475219727
            ]
        },
        {
            "bufferView": 25,
            "byteOffset": 0,
            "componentType": 5126,
            "count": 720,
            "type": "VEC3",
            "max": [
                0.9518268704414368,
                0.9708768129348755,
                0.9950223565101624
            ],
            "min": [
                -0.9518268704414368,
                -0.9708768129348755,
                -0.9950223565101624
            ]
        },
        {
            "bufferView": 26,
            "byteOffset": 0,
            "componentType": 5126,
            "count": 720,
            "type": "VEC2",
            "max": [
                0.9196599721908569,
                1.9890649318695069
            ],
            "min": [
                -1.0820704698562623,
                -9.659383773803711
            ]
        },
        {
            "bufferView": 27,
            "byteOffset": 0,
            "componentType": 5125,
            "count": 720,
            "type": "SCALAR",
            "max": [
                719
            ],
            "min": [
                0
            ]
        },
        {
            "bufferView": 28,
            "byteOffset": 0,
            "componentType": 5126,
            "count": 252,
            "type": "VEC3",
            "max": [
                0.5132268667221069,
                -0.009741521440446377,
                8.554293632507325
            ],
            "min": [
                0.05370325222611427,
                -0.46926701068878176,
                -2.9506266117095949
            ]
        },
        {
            "bufferView": 29,
            "byteOffset": 0,
            "componentType": 5126,
            "count": 252,
            "type": "VEC3",
            "max": [
                0.9999984502792358,
                0.9999984502792358,
                1.0
            ],
            "min": [
                -0.9999984502792358,
                -0.9999984502792358,
                -1.0
            ]
        },
        {
            "bufferView": 30,
            "byteOffset": 0,
            "componentType": 5126,
            "count": 252,
            "type": "VEC2",
            "max": [
                0.6116729974746704,
                4.246453285217285
            ],
            "min": [
                -0.22976316511631013,
                -7.266766548156738
            ]
        },
        {
            "bufferView": 31,
            "byteOffset": 0,
            "componentType": 5125,
            "count": 252,
            "type": "SCALAR",
            "max": [
                251
            ],
            "min": [
                0
            ]
        }
    ],
    "buffers": [
        {
            "byteLength": 41040,
            "uri": "result.bin"
        }
    ],
    "bufferViews": [
        {
            "buffer": 0,
            "byteOffset": 0,
            "byteLength": 288,
            "target": 34962
        },
        {
            "buffer": 0,
            "byteOffset": 288,
            "byteLength": 288,
            "target": 34962
        },
        {
            "buffer": 0,
            "byteOffset": 576,
            "byteLength": 192,
            "target": 34962
        },
        {
            "buffer": 0,
            "byteOffset": 768,
            "byteLength": 96,
            "target": 34963
        },
        {
            "buffer": 0,
            "byteOffset": 864,
            "byteLength": 288,
            "target": 34962
        },
        {
            "buffer": 0,
            "byteOffset": 1152,
            "byteLength": 288,
            "target": 34962
        },
        {
            "buffer": 0,
            "byteOffset": 1440,
            "byteLength": 192,
            "target": 34962
        },
        {
            "buffer": 0,
            "byteOffset": 1632,
            "byteLength": 96,
            "target": 34963
        },
        {
            "buffer": 0,
            "byteOffset": 1728,
            "byteLength": 288,
            "target": 34962
        },
        {
            "buffer": 0,
            "byteOffset": 2016,
            "byteLength": 288,
            "target": 34962
        },
        {
            "buffer": 0,
            "byteOffset": 2304,
            "byteLength": 192,
            "target": 34962
        },
        {
            "buffer": 0,
            "byteOffset": 2496,
            "byteLength": 96,
            "target": 34963
        },
        {
            "buffer": 0,
            "byteOffset": 2592,
            "byteLength": 288,
            "target": 34962
        },
        {
            "buffer": 0,
            "byteOffset": 2880,
            "byteLength": 288,
            "target": 34962
        },
        {
            "buffer": 0,
            "byteOffset": 3168,
            "byteLength": 192,
            "target": 34962
        },
        {
            "buffer": 0,
            "byteOffset": 3360,
            "byteLength": 96,
            "target": 34963
        },
        {
            "buffer": 0,
            "byteOffset": 3456,
            "byteLength": 288,
            "target": 34962
        },
        {
            "buffer": 0,
            "byteOffset": 3744,
            "byteLength": 288,
            "target": 34962
        },
        {
            "buffer": 0,
            "byteOffset": 4032,
            "byteLength": 192,
            "target": 34962
        },
        {
            "buffer": 0,
            "byteOffset": 4224,
            "byteLength": 96,
            "target": 34963
        },
        {
            "buffer": 0,
            "byteOffset": 4320,
            "byteLength": 576,
            "target": 34962
        },
        {
            "buffer": 0,
            "byteOffset": 4896,
            "byteLength": 576,
            "target": 34962
        },
        {
            "buffer": 0,
            "byteOffset": 5472,
            "byteLength": 384,
            "target": 34962
        },
        {
            "buffer": 0,
            "byteOffset": 5856,
            "byteLength": 192,
            "target": 34963
        },
        {
            "buffer": 0,
            "byteOffset": 6048,
            "byteLength": 8640,
            "target": 34962
        },
        {
            "buffer": 0,
            "byteOffset": 14688,
            "byteLength": 8640,
            "target": 34962
        },
        {
            "buffer": 0,
            "byteOffset": 23328,
            "byteLength": 5760,
            "target": 34962
        },
        {
            "buffer": 0,
            "byteOffset": 29088,
            "byteLength": 2880,
            "target": 34963
        },
        {
            "buffer": 0,
            "byteOffset": 31968,
            "byteLength": 3024,
            "target": 34962
        },
        {
            "buffer": 0,
            "byteOffset": 34992,
            "byteLength": 3024,
            "target": 34962
        },
        {
            "buffer": 0,
            "byteOffset": 38016,
            "byteLength": 2016,
            "target": 34962
        },
        {
            "buffer": 0,
            "byteOffset": 40032,
            "byteLength": 1008,
            "target": 34963
        }
    ],
    "images": [
        {
            "uri": "..\\..\\..\\Documents\\rose\\_auto_.png"
        }
    ],
    "materials": [
        {
            "name": "_auto_",
            "pbrMetallicRoughness": {
                "baseColorTexture": {
                    "index": 0
                },
                "baseColorFactor": [
                    0.4627451002597809,
                    0.18039216101169587,
                    0.16078431904315949,
                    1.0
                ],
                "metallicFactor": 0.0,
                "roughnessFactor": 0.5527864098548889
            }
        },
        {
            "name": "material"
        }
    ],
    "meshes": [
        {
            "name": "Mesh1",
            "primitives": [
                {
                    "mode": 4,
                    "material": 0,
                    "indices": 3,
                    "attributes": {
                        "POSITION": 0,
                        "NORMAL": 1,
                        "TEXCOORD_0": 2
                    }
                }
            ]
        },
        {
            "name": "Mesh2",
            "primitives": [
                {
                    "mode": 4,
                    "material": 0,
                    "indices": 7,
                    "attributes": {
                        "POSITION": 4,
                        "NORMAL": 5,
                        "TEXCOORD_0": 6
                    }
                }
            ]
        },
        {
            "name": "Mesh3",
            "primitives": [
                {
                    "mode": 4,
                    "material": 0,
                    "indices": 11,
                    "attributes": {
                        "POSITION": 8,
                        "NORMAL": 9,
                        "TEXCOORD_0": 10
                    }
                }
            ]
        },
        {
            "name": "Mesh4",
            "primitives": [
                {
                    "mode": 4,
                    "material": 0,
                    "indices": 15,
                    "attributes": {
                        "POSITION": 12,
                        "NORMAL": 13,
                        "TEXCOORD_0": 14
                    }
                }
            ]
        },
        {
            "name": "Mesh5",
            "primitives": [
                {
                    "mode": 4,
                    "material": 0,
                    "indices": 19,
                    "attributes": {
                        "POSITION": 16,
                        "NORMAL": 17,
                        "TEXCOORD_0": 18
                    }
                }
            ]
        },
        {
            "name": "Mesh6",
            "primitives": [
                {
                    "mode": 4,
                    "material": 0,
                    "indices": 23,
                    "attributes": {
                        "POSITION": 20,
                        "NORMAL": 21,
                        "TEXCOORD_0": 22
                    }
                }
            ]
        },
        {
            "name": "Mesh7",
            "primitives": [
                {
                    "mode": 4,
                    "material": 0,
                    "indices": 27,
                    "attributes": {
                        "POSITION": 24,
                        "NORMAL": 25,
                        "TEXCOORD_0": 26
                    }
                }
            ]
        },
        {
            "name": "Mesh8",
            "primitives": [
                {
                    "mode": 4,
                    "material": 0,
                    "indices": 31,
                    "attributes": {
                        "POSITION": 28,
                        "NORMAL": 29,
                        "TEXCOORD_0": 30
                    }
                }
            ]
        }
    ],
    "nodes": [
        {
            "name": "RootNode",
            "children": [
                1
            ]
        },
        {
            "name": "Model",
            "children": [
                2
            ],
            "extras": {
                "UserProperties": "",
                "IsNull": false
            }
        },
        {
            "name": "skpE5DE1",
            "children": [
                3,
                4,
                5,
                6,
                7,
                8,
                9,
                10
            ],
            "extras": {
                "UserProperties": "",
                "IsNull": false
            }
        },
        {
            "name": "Mesh1",
            "mesh": 0,
            "extras": {
                "UserProperties": "",
                "IsNull": false,
                "DefaultAttributeIndex": 0
            }
        },
        {
            "name": "Mesh2",
            "mesh": 1,
            "extras": {
                "UserProperties": "",
                "IsNull": false,
                "DefaultAttributeIndex": 0
            }
        },
        {
            "name": "Mesh3",
            "mesh": 2,
            "extras": {
                "UserProperties": "",
                "IsNull": false,
                "DefaultAttributeIndex": 0
            }
        },
        {
            "name": "Mesh4",
            "mesh": 3,
            "extras": {
                "UserProperties": "",
                "IsNull": false,
                "DefaultAttributeIndex": 0
            }
        },
        {
            "name": "Mesh5",
            "mesh": 4,
            "extras": {
                "UserProperties": "",
                "IsNull": false,
                "DefaultAttributeIndex": 0
            }
        },
        {
            "name": "Mesh6",
            "mesh": 5,
            "extras": {
                "UserProperties": "",
                "IsNull": false,
                "DefaultAttributeIndex": 0
            }
        },
        {
            "name": "Mesh7",
            "mesh": 6,
            "extras": {
                "UserProperties": "",
                "IsNull": false,
                "DefaultAttributeIndex": 0
            }
        },
        {
            "name": "Mesh8",
            "mesh": 7,
            "extras": {
                "UserProperties": "",
                "IsNull": false,
                "DefaultAttributeIndex": 0
            }
        }
    ],
    "samplers": [
        {}
    ],
    "scenes": [
        {
            "nodes": [
                0
            ]
        }
    ],
    "textures": [
        {
            "source": 0,
            "sampler": 0
        }
    ],
    "scene": 0
}